<svg width="54" height="54" viewBox="0 0 54 54" fill="none" xmlns="http://www.w3.org/2000/svg">
<path d="M3.375 25.3125H50.625" stroke="#D4C9C0" stroke-width="3" stroke-linecap="round" stroke-linejoin="round"/>
<path d="M47.25 37.125V43.875C47.25 44.3226 47.0722 44.7518 46.7557 45.0683C46.4393 45.3847 46.0101 45.5625 45.5625 45.5625H40.5C40.0524 45.5625 39.6232 45.3847 39.3068 45.0683C38.9903 44.7518 38.8125 44.3226 38.8125 43.875V37.125" stroke="#D4C9C0" stroke-width="3" stroke-linecap="round" stroke-linejoin="round"/>
<path d="M15.1875 37.125V43.875C15.1875 44.3226 15.0097 44.7518 14.6932 45.0683C14.3768 45.3847 13.9476 45.5625 13.5 45.5625H8.4375C7.98995 45.5625 7.56073 45.3847 7.24426 45.0683C6.92779 44.7518 6.75 44.3226 6.75 43.875V37.125" stroke="#D4C9C0" stroke-width="3" stroke-linecap="round" stroke-linejoin="round"/>
<path d="M47.25 25.3124L40.943 11.1375C40.8121 10.8376 40.5969 10.5822 40.3235 10.4025C40.0501 10.2227 39.7303 10.1263 39.4031 10.125H14.5969C14.2697 10.1263 13.9499 10.2227 13.6765 10.4025C13.4031 10.5822 13.1879 10.8376 13.057 11.1375L6.75 25.3124V37.1249H47.25V25.3124Z" stroke="#D4C9C0" stroke-width="3" stroke-linecap="round" stroke-linejoin="round"/>
</svg>
