<svg width="54" height="54" viewBox="0 0 54 54" fill="none" xmlns="http://www.w3.org/2000/svg">
<path d="M32.0625 43.8753V33.7503C32.0625 33.3028 31.8847 32.8736 31.5682 32.5571C31.2518 32.2406 30.8226 32.0628 30.375 32.0628H23.625C23.1774 32.0628 22.7482 32.2406 22.4318 32.5571C22.1153 32.8736 21.9375 33.3028 21.9375 33.7503V43.8753C21.9375 44.3229 21.7597 44.7521 21.4432 45.0686C21.1268 45.385 20.6976 45.5628 20.25 45.5628H10.125C9.67745 45.5628 9.24823 45.385 8.93176 45.0686C8.61529 44.7521 8.4375 44.3229 8.4375 43.8753V24.3636C8.44128 24.1301 8.49175 23.8997 8.58594 23.6859C8.68012 23.4722 8.81613 23.2795 8.98594 23.1191L25.8609 7.78398C26.172 7.49939 26.5784 7.34155 27 7.34155C27.4216 7.34155 27.828 7.49939 28.1391 7.78398L45.0141 23.1191C45.1839 23.2795 45.3199 23.4722 45.4141 23.6859C45.5083 23.8997 45.5587 24.1301 45.5625 24.3636V43.8753C45.5625 44.3229 45.3847 44.7521 45.0682 45.0686C44.7518 45.385 44.3226 45.5628 43.875 45.5628H33.75C33.3024 45.5628 32.8732 45.385 32.5568 45.0686C32.2403 44.7521 32.0625 44.3229 32.0625 43.8753Z" stroke="#D4C9C0" stroke-width="3" stroke-linecap="round" stroke-linejoin="round"/>
</svg>
