<svg width="68" height="69" viewBox="0 0 68 69" fill="none" xmlns="http://www.w3.org/2000/svg">
<path d="M9.24959 5.87506L10.1955 7.03923C10.2107 7.02683 10.2258 7.01412 10.2405 7.00113L9.24959 5.87506ZM30.2496 5.50006L31.0909 4.25818L31.0909 4.25818L30.2496 5.50006ZM44.1246 14.5L44.9566 13.2519C44.9049 13.2174 44.851 13.1862 44.7954 13.1583L44.1246 14.5ZM46.3746 20.125L45.033 19.4542L45.033 19.4542L46.3746 20.125ZM39.6246 21.25L40.0989 19.827L40.0989 19.827L39.6246 21.25ZM32.8746 17.5L33.5454 16.1584C32.8804 15.8258 32.0721 16.0307 31.6457 16.6398L32.8746 17.5ZM23.4996 20.125L23.253 21.6046L23.253 21.6046L23.4996 20.125ZM17.6098 15.1462C16.9311 14.6711 15.9958 14.8361 15.5207 15.5148C15.0457 16.1935 15.2107 17.1288 15.8894 17.6039L17.6098 15.1462ZM3.62459 28.75L4.97386 28.0946L3.62459 28.75ZM11.4998 44.875L12.859 44.2407L12.859 44.2407L11.4998 44.875ZM18.2498 49L18.9206 50.3417L18.9206 50.3417L18.2498 49ZM19.3748 42.625L18.0885 43.3968L18.0885 43.3968L19.3748 42.625ZM14.7353 29.6183C14.3864 28.8669 13.4945 28.5406 12.7431 28.8895C11.9917 29.2384 11.6654 30.1303 12.0142 30.8817L14.7353 29.6183ZM34.2011 16.7993C33.8141 16.0668 32.9066 15.7867 32.1741 16.1737C31.4416 16.5607 31.1615 17.4682 31.5485 18.2007L34.2011 16.7993ZM42.0485 38.0757C42.4354 38.8082 43.343 39.0883 44.0754 38.7013C44.8079 38.3143 45.088 37.4068 44.7011 36.6743L42.0485 38.0757ZM30.4546 26.1812C30.0714 25.4467 29.1654 25.1619 28.4309 25.5451C27.6964 25.9283 27.4117 26.8344 27.7949 27.5689L30.4546 26.1812ZM32.2949 36.1939C32.6781 36.9283 33.5841 37.2131 34.3186 36.8299C35.0531 36.4467 35.3378 35.5406 34.9546 34.8062L32.2949 36.1939ZM24.4177 32.4895C23.9976 31.7754 23.0783 31.5371 22.3642 31.9571C21.6502 32.3771 21.4118 33.2965 21.8319 34.0105L24.4177 32.4895ZM25.5819 40.3855C26.0019 41.0996 26.9212 41.3379 27.6353 40.9179C28.3493 40.4979 28.5877 39.5785 28.1677 38.8645L25.5819 40.3855ZM21.411 43.3532C20.9848 42.6429 20.0634 42.4125 19.353 42.8387C18.6426 43.265 18.4123 44.1864 18.8385 44.8967L21.411 43.3532ZM23.4998 49.75L24.8414 49.0792C24.8242 49.0448 24.8057 49.0112 24.786 48.9782L23.4998 49.75ZM28.2956 53.7166C29.0365 53.3462 29.3369 52.4451 28.9664 51.7042C28.5959 50.9632 27.6949 50.6629 26.9539 51.0334L28.2956 53.7166ZM62.7706 45.3601C63.2457 46.0388 64.181 46.2039 64.8597 45.7288C65.5383 45.2537 65.7034 44.3184 65.2284 43.6398L62.7706 45.3601ZM56.1248 33.2499L54.8767 34.082C54.883 34.0914 54.8894 34.1008 54.8959 34.1101L56.1248 33.2499ZM50.8748 31.75L51.6698 33.022L51.6698 33.022L50.8748 31.75ZM50.8745 37.7499L52.1607 36.9782C52.1426 36.948 52.1235 36.9185 52.1033 36.8897L50.8745 37.7499ZM53.1246 41.4999L52.5676 42.8927C53.1654 43.1318 53.8492 42.9627 54.2666 42.4725C54.6841 41.9823 54.7422 41.2803 54.4109 40.7282L53.1246 41.4999ZM38.1246 35.4999L38.6817 34.1072C38.6545 34.0963 38.6269 34.0862 38.599 34.0769L38.1246 35.4999ZM32.8746 36.6249L31.4324 36.2129L32.8746 36.6249ZM35.1246 40.7499L34.5675 42.1426L34.5676 42.1427L35.1246 40.7499ZM45.8176 46.6427C46.5868 46.9503 47.4597 46.5762 47.7674 45.807C48.075 45.0379 47.7009 44.1649 46.9317 43.8572L45.8176 46.6427ZM34.598 42.1546C35.3736 42.4455 36.2383 42.0526 36.5292 41.2769C36.8201 40.5013 36.4272 39.6366 35.6515 39.3457L34.598 42.1546ZM32.1248 39.625L32.6516 38.2205C32.6342 38.214 32.6168 38.2078 32.5992 38.202L32.1248 39.625ZM26.4998 40.7502L27.8414 41.421L27.8414 41.421L26.4998 40.7502ZM28.7497 45.6251L28.0789 46.9667L28.0789 46.9667L28.7497 45.6251ZM40.5929 51.9026C41.3674 52.1964 42.2335 51.8066 42.5273 51.0321C42.8211 50.2575 42.4314 49.3914 41.6568 49.0976L40.5929 51.9026ZM30.9111 48.1766C31.699 48.4326 32.5452 48.0014 32.8012 47.2136C33.0573 46.4257 32.6261 45.5795 31.8382 45.3234L30.9111 48.1766ZM26.4997 48.25L25.0767 47.7756L25.0767 47.7756L26.4997 48.25ZM29.1248 52.7501L29.782 51.4017L29.782 51.4017L29.1248 52.7501ZM43.2295 59.7819C44.0065 60.0692 44.8693 59.6722 45.1566 58.8952C45.4439 58.1182 45.047 57.2554 44.2699 56.9681L43.2295 59.7819ZM32.4112 55.6766C33.1991 55.9326 34.0453 55.5014 34.3013 54.7135C34.5574 53.9257 34.1262 53.0794 33.3383 52.8234L32.4112 55.6766ZM28.1256 55.9946L29.5786 56.3672L28.1256 55.9946ZM30.7507 60.4946L31.408 59.1463L31.408 59.1463L30.7507 60.4946ZM45.3757 66.1196L44.8555 67.5265C44.8687 67.5314 44.8821 67.5361 44.8955 67.5407L45.3757 66.1196ZM62.8748 61.375L64.0679 62.2841L64.0679 62.2841L62.8748 61.375ZM65.2653 43.6947C64.8205 42.9958 63.8934 42.7897 63.1945 43.2345C62.4955 43.6793 62.2895 44.6064 62.7343 45.3053L65.2653 43.6947ZM10.2405 7.00113C13.0147 4.55988 20.8351 0.934295 29.4083 6.74193L31.0909 4.25818C21.064 -2.53418 11.7345 1.69023 8.25865 4.74899L10.2405 7.00113ZM29.4083 6.74193C38.6773 13.0209 42.5951 15.4123 43.4538 15.8417L44.7954 13.1583C44.1541 12.8377 40.4219 10.5792 31.0909 4.25818L29.4083 6.74193ZM43.2925 15.7481C44.3358 16.4436 44.9275 17.0626 45.1855 17.6124C45.3961 18.061 45.4562 18.6076 45.033 19.4542L47.7162 20.7958C48.493 19.2424 48.5531 17.7265 47.9012 16.3376C47.2967 15.0499 46.1634 14.0564 44.9566 13.2519L43.2925 15.7481ZM45.033 19.4542C44.7765 19.9671 44.4966 20.2158 44.2512 20.3519C43.9929 20.4952 43.6615 20.5744 43.2238 20.5718C42.275 20.5662 41.2183 20.2001 40.0989 19.827L39.1503 22.673C40.1053 22.9914 41.6736 23.5627 43.2061 23.5718C44.0092 23.5765 44.8826 23.4323 45.7064 22.9754C46.5432 22.5112 47.2227 21.7829 47.7162 20.7958L45.033 19.4542ZM40.0989 19.827C39.1598 19.5139 38.1679 18.9457 37.0446 18.2436C35.9757 17.5755 34.7543 16.7628 33.5454 16.1584L32.2038 18.8416C33.2449 19.3622 34.2735 20.0495 35.4546 20.7876C36.5813 21.4918 37.8394 22.2361 39.1503 22.673L40.0989 19.827ZM31.6457 16.6398C31.5877 16.7227 31.3582 16.9643 30.8656 17.2791C30.4003 17.5765 29.7814 17.8873 29.0445 18.149C27.567 18.6737 25.7014 18.9713 23.7462 18.6454L23.253 21.6046C25.7978 22.0287 28.1822 21.6388 30.0485 20.976C30.9834 20.644 31.8098 20.236 32.4813 19.8069C33.1254 19.3951 33.724 18.9023 34.1034 18.3602L31.6457 16.6398ZM23.7462 18.6454C20.2444 18.0618 19.2724 16.31 17.6098 15.1462L15.8894 17.6039C16.7268 18.19 18.8587 20.8722 23.253 21.6046L23.7462 18.6454ZM8.30371 4.71088C6.12997 6.47703 3.27582 9.77677 1.6252 14.0537C-0.0425313 18.3749 -0.485606 23.7211 2.27533 29.4054L4.97386 28.0946C2.63479 23.2789 3.00422 18.8126 4.42399 15.1339C5.86086 11.4108 8.36922 8.52306 10.1955 7.03923L8.30371 4.71088ZM2.27533 29.4054C7.39212 39.9399 9.27067 43.6456 10.1405 45.5094L12.859 44.2407C11.9787 42.3545 10.0571 38.5601 4.97386 28.0946L2.27533 29.4054ZM10.1405 45.5094C10.8307 46.9883 11.897 48.6345 13.3187 49.7166C14.8122 50.8532 16.7913 51.4063 18.9206 50.3417L17.5789 47.6584C16.7082 48.0937 15.9489 47.9482 15.1356 47.3293C14.2506 46.6558 13.4418 45.4895 12.859 44.2407L10.1405 45.5094ZM18.9206 50.3417C20.827 49.3884 21.6517 47.7525 21.7609 46.0995C21.8643 44.5365 21.34 42.9849 20.661 41.8533L18.0885 43.3968C18.5345 44.1401 18.8212 45.0893 18.7675 45.9017C18.7197 46.6241 18.4194 47.2381 17.5789 47.6584L18.9206 50.3417ZM20.661 41.8533C19.8139 40.4414 16.3848 33.1712 14.7353 29.6183L12.0142 30.8817C13.6147 34.3288 17.1356 41.8086 18.0885 43.3968L20.661 41.8533ZM31.5485 18.2007L42.0485 38.0757L44.7011 36.6743L34.2011 16.7993L31.5485 18.2007ZM27.7949 27.5689L32.2949 36.1939L34.9546 34.8062L30.4546 26.1812L27.7949 27.5689ZM21.8319 34.0105L25.5819 40.3855L28.1677 38.8645L24.4177 32.4895L21.8319 34.0105ZM18.8385 44.8967L22.2135 50.5217L24.786 48.9782L21.411 43.3532L18.8385 44.8967ZM22.1581 50.4208C22.5284 51.1614 23.2224 52.2313 24.156 53.0166C25.0841 53.7973 26.6126 54.5581 28.2956 53.7166L26.9539 51.0334C26.8369 51.0919 26.6154 51.1651 26.0872 50.7209C25.5646 50.2812 25.0961 49.5886 24.8414 49.0792L22.1581 50.4208ZM65.2284 43.6398L57.3536 32.3897L54.8959 34.1101L62.7706 45.3601L65.2284 43.6398ZM57.3728 32.4178C56.8849 31.6859 55.9757 30.7178 54.7444 30.1524C53.4347 29.551 51.7675 29.4232 50.0798 30.478L51.6698 33.022C52.382 32.5768 52.9649 32.6365 53.4926 32.8788C54.0988 33.1571 54.6146 33.6889 54.8767 34.082L57.3728 32.4178ZM50.0798 30.478C48.1809 31.6648 47.9187 33.5846 48.1665 35.0876C48.4054 36.5371 49.1287 37.8716 49.6456 38.6101L52.1033 36.8897C51.7453 36.3783 51.2688 35.4628 51.1265 34.5998C50.9931 33.7904 51.1686 33.3352 51.6698 33.022L50.0798 30.478ZM49.5883 38.5217L51.8384 42.2717L54.4109 40.7282L52.1607 36.9782L49.5883 38.5217ZM53.6817 40.1072L38.6817 34.1072L37.5676 36.8927L52.5676 42.8927L53.6817 40.1072ZM38.599 34.0769C37.4129 33.6815 35.9954 33.3522 34.7056 33.504C34.0382 33.5825 33.3353 33.7978 32.7226 34.2646C32.0942 34.7434 31.6616 35.4106 31.4324 36.2129L34.3169 37.037C34.3877 36.7893 34.4801 36.6971 34.5407 36.6509C34.6172 36.5927 34.7674 36.5174 35.0562 36.4834C35.6789 36.4102 36.5864 36.5683 37.6503 36.923L38.599 34.0769ZM31.4324 36.2129C31.047 37.5617 31.1206 38.8524 31.7838 39.9628C32.4197 41.0276 33.4659 41.702 34.5675 42.1426L35.6818 39.3572C34.9085 39.0479 34.5297 38.7098 34.3594 38.4246C34.2163 38.185 34.1023 37.7882 34.3169 37.037L31.4324 36.2129ZM34.5676 42.1427L45.8176 46.6427L46.9317 43.8572L35.6817 39.3572L34.5676 42.1427ZM35.6515 39.3457L32.6516 38.2205L31.5981 41.0295L34.598 42.1546L35.6515 39.3457ZM32.5992 38.202C31.7386 37.9151 30.3899 37.6107 29.0393 37.7084C27.6796 37.8068 26.0206 38.3545 25.1581 40.0793L27.8414 41.421C28.0397 41.0243 28.4432 40.7594 29.2559 40.7006C30.0776 40.6411 31.0111 40.8349 31.6505 41.048L32.5992 38.202ZM25.1581 40.0793C24.3261 41.7433 24.623 43.3255 25.3605 44.5322C26.0577 45.6731 27.1451 46.4998 28.0789 46.9667L29.4206 44.2834C28.8544 44.0003 28.2543 43.5145 27.9203 42.9679C27.6265 42.4872 27.5485 42.0068 27.8414 41.421L25.1581 40.0793ZM28.0789 46.9667C28.7578 47.3062 31.0338 48.2138 33.4826 49.1693C35.979 50.1434 38.7774 51.214 40.5929 51.9026L41.6568 49.0976C39.8472 48.4112 37.0581 47.3442 34.5732 46.3746C32.0408 45.3864 29.9417 44.544 29.4206 44.2834L28.0789 46.9667ZM31.8382 45.3234C31.0492 45.0671 29.7736 44.8244 28.5098 45.016C27.1883 45.2164 25.6858 45.9485 25.0767 47.7756L27.9227 48.7244C28.0636 48.3015 28.3536 48.074 28.9596 47.9821C29.6232 47.8815 30.41 48.0138 30.9111 48.1766L31.8382 45.3234ZM25.0767 47.7756C24.479 49.5684 24.9883 51.0613 25.8545 52.1316C26.6592 53.1259 27.7562 53.7517 28.4676 54.0984L29.782 51.4017C29.2032 51.1196 28.5772 50.7271 28.1865 50.2443C27.8573 49.8376 27.6991 49.395 27.9227 48.7244L25.0767 47.7756ZM28.4676 54.0984C29.0617 54.388 32.0347 55.5409 35.1196 56.72C38.2597 57.9203 41.6635 59.2029 43.2295 59.7819L44.2699 56.9681C42.7182 56.3943 39.3255 55.116 36.1907 53.9177C33.0005 52.6983 30.2199 51.6151 29.782 51.4017L28.4676 54.0984ZM33.3383 52.8234C32.4122 52.5225 31.0683 52.454 29.8509 52.7541C28.6325 53.0545 27.1271 53.8501 26.6727 55.6219L29.5786 56.3672C29.6402 56.1269 29.8643 55.8406 30.5689 55.6669C31.2746 55.493 32.0472 55.5583 32.4112 55.6766L33.3383 52.8234ZM26.6727 55.6219C26.2218 57.3798 26.7012 58.8209 27.5334 59.8792C28.3141 60.872 29.3676 61.4892 30.0935 61.843L31.408 59.1463C30.8438 58.8713 30.2622 58.496 29.8916 58.0248C29.5726 57.6191 29.3844 57.1246 29.5786 56.3672L26.6727 55.6219ZM30.0935 61.843C30.6877 62.1326 33.6607 63.2854 36.7455 64.4646C39.8857 65.6649 43.2895 66.9475 44.8555 67.5265L45.8959 64.7127C44.3441 64.1389 40.9515 62.8606 37.8166 61.6623C34.6265 60.4429 31.8459 59.3597 31.408 59.1463L30.0935 61.843ZM44.8955 67.5407C46.7024 68.1512 49.8218 69.0125 53.3345 68.6298C56.9078 68.2404 60.8021 66.5704 64.0679 62.2841L61.6816 60.4659C58.9474 64.0546 55.8212 65.3411 53.0095 65.6474C50.1372 65.9604 47.507 65.2564 45.8559 64.6985L44.8955 67.5407ZM64.0679 62.2841C66.8382 58.6481 67.9084 55.1395 67.8649 51.9134C67.8218 48.7098 66.6829 45.9224 65.2653 43.6947L62.7343 45.3053C63.9416 47.2026 64.8315 49.4517 64.8652 51.9538C64.8986 54.4335 64.0938 57.2999 61.6816 60.4659L64.0679 62.2841Z" fill="#D4C9C0"/>
</svg>
