<svg width="176" height="172" viewBox="0 0 176 172" fill="none" xmlns="http://www.w3.org/2000/svg">
<path opacity="0.05" fill-rule="evenodd" clip-rule="evenodd" d="M55.2356 6.43358C62.9622 -1.29295 75.4886 -1.2941 83.2166 6.43012L83.2201 6.43358L87.2922 10.5057L87.2823 10.5157L95.2637 18.497L94.4796 19.2811L88.4529 25.3079L76.3993 13.2543C72.4386 9.29365 66.0171 9.29365 62.0564 13.2543C58.0957 17.215 58.0957 23.6366 62.0564 27.5972L88.3859 53.9267L88.4529 53.8597L88.5198 53.9267L114.849 27.5972C118.81 23.6366 118.81 17.215 114.849 13.2543C111.431 9.83582 106.179 9.36787 102.259 11.8505L95.3517 4.94354C103.12 -1.25727 114.476 -0.76059 121.67 6.43358C129.398 14.1613 129.398 26.6903 121.67 34.418L88.5198 67.5682L88.4529 67.5012L88.3859 67.5682L55.2356 34.418C47.508 26.6903 47.508 14.1613 55.2356 6.43358ZM43.2978 67.8081H54.4928V120.984H43.2978V67.8081ZM74.0851 73.4055H62.8901V120.984H74.0851V73.4055ZM82.4814 97.1947V137.777C82.4814 138.757 82.0814 140.718 80.8668 143.337C79.6974 145.859 77.937 148.63 75.6498 151.188C71.0481 156.335 64.7609 160.167 57.2926 160.167C41.4862 160.167 33.0954 151.843 27.6656 146.413L8.07428 126.822L0.158203 134.738L19.8054 154.385C25.587 160.167 36.7815 171.362 57.2926 171.362C68.8557 171.362 77.9617 165.398 83.9953 158.65C85.5297 156.934 86.8943 155.138 88.0791 153.327C89.2639 155.138 90.6284 156.934 92.1628 158.65C98.1964 165.398 107.302 171.362 118.866 171.362C139.377 171.362 150.571 160.167 156.353 154.385L176 134.738L168.084 126.822L148.493 146.413C143.063 151.843 134.672 160.167 118.866 160.167C111.397 160.167 105.11 156.335 100.508 151.188C98.2212 148.63 96.4608 145.859 95.2913 143.337C94.0767 140.718 93.6768 138.757 93.6768 137.777V97.1947H93.6764H82.4818H82.4814ZM23.7075 81.8012H34.9025V121.868L52.0929 139.059L44.1768 146.975L23.7837 126.581L23.7839 126.581H23.7075V81.8012ZM121.665 67.8081H132.86V120.984H121.665V67.8081ZM113.268 73.4054H102.073V120.984H113.268V73.4054ZM141.256 81.8012H152.451V126.581H152.375L152.375 126.581L131.982 146.975L124.066 139.059L141.256 121.868V81.8012Z" fill="white"/>
</svg>
